<?xml version="1.0" encoding="UTF-8" standalone="no"?>
<!DOCTYPE svg PUBLIC "-//W3C//DTD SVG 1.1//EN"
 "http://www.w3.org/Graphics/SVG/1.1/DTD/svg11.dtd">
<!-- Generated by graphviz version 10.0.1 (0)
 -->
<!-- Title: knowledge_base Pages: 1 -->
<svg
 viewBox="0.00 0.00 845.92 246.77" xmlns="http://www.w3.org/2000/svg" xmlns:xlink="http://www.w3.org/1999/xlink">
<g id="graph0" class="graph" transform="scale(1 1) rotate(0) translate(4 242.77)">
<title>knowledge_base</title>
<polygon fill="white" stroke="none" points="-4,4 -4,-242.77 841.92,-242.77 841.92,4 -4,4"/>
<g id="clust1" class="cluster">
<title>cluster_documents</title>
<polygon fill="none" stroke="purple" stroke-dasharray="5,2" points="31.25,-134.77 31.25,-214.77 246.25,-214.77 246.25,-134.77 31.25,-134.77"/>
<text text-anchor="middle" x="75.25" y="-197.47" font-family="IBM Plex Sans" font-size="14.00">Documents</text>
</g>
<g id="clust2" class="cluster">
<title>cluster_computations</title>
<polygon fill="none" stroke="purple" stroke-dasharray="5,2" points="647.92,-63.77 647.92,-143.77 829.92,-143.77 829.92,-63.77 647.92,-63.77"/>
<text text-anchor="middle" x="700.55" y="-126.47" font-family="IBM Plex Sans" font-size="14.00">Computations</text>
</g>
<g id="clust3" class="cluster">
<title>cluster_variables</title>
<polygon fill="none" stroke="purple" stroke-dasharray="5,2" points="345,-34.77 345,-230.77 572.42,-230.77 572.42,-34.77 345,-34.77"/>
<text text-anchor="middle" x="382.25" y="-213.47" font-family="IBM Plex Sans" font-size="14.00">Variables</text>
</g>
<g id="clust4" class="cluster">
<title>cluster_texts</title>
<polygon fill="none" stroke="purple" stroke-dasharray="5,2" points="8,-35.77 8,-115.77 269.5,-115.77 269.5,-35.77 8,-35.77"/>
<text text-anchor="middle" x="32.5" y="-98.47" font-family="IBM Plex Sans" font-size="14.00">Texts</text>
</g>
<!-- doc_indexed_income_statement -->
<g id="node1" class="node">
<title>doc_indexed_income_statement</title>
<polygon fill="white" stroke="black" stroke-width="3" points="238.25,-178.77 39.25,-178.77 39.25,-142.77 238.25,-142.77 238.25,-178.77"/>
<text text-anchor="middle" x="138.75" y="-157.22" font-family="IBM Plex Sans" font-size="14.00">Déclaration de revenu indexé</text>
</g>
<!-- var_reference_income -->
<g id="node3" class="node">
<title>var_reference_income</title>
<ellipse fill="white" stroke="black" cx="458.71" cy="-175.77" rx="102.53" ry="19.45"/>
<text text-anchor="middle" x="458.71" y="-172.22" font-family="IBM Plex Sans" font-size="14.00">Revenu de référence</text>
</g>
<!-- doc_indexed_income_statement&#45;&gt;var_reference_income -->
<g id="edge1" class="edge">
<title>doc_indexed_income_statement&#45;&gt;var_reference_income</title>
<path fill="none" stroke="blue" d="M239.48,-165.47C273.75,-167.09 312.3,-168.91 347.36,-170.56"/>
<polygon fill="blue" stroke="blue" points="346.94,-174.04 357.09,-171.02 347.27,-167.05 346.94,-174.04"/>
<text text-anchor="middle" x="307.25" y="-174.97" font-family="IBM Plex Sans" font-size="14.00">presents</text>
</g>
<!-- var_indexed_income -->
<g id="node4" class="node">
<title>var_indexed_income</title>
<ellipse fill="white" stroke="black" cx="458.71" cy="-118.77" rx="76.54" ry="19.45"/>
<text text-anchor="middle" x="458.71" y="-115.22" font-family="IBM Plex Sans" font-size="14.00">Revenu indexé</text>
</g>
<!-- doc_indexed_income_statement&#45;&gt;var_indexed_income -->
<g id="edge2" class="edge">
<title>doc_indexed_income_statement&#45;&gt;var_indexed_income</title>
<path fill="none" stroke="blue" d="M239.48,-147.59C284.36,-141.66 336.59,-134.77 378.7,-129.2"/>
<polygon fill="blue" stroke="blue" points="379.05,-132.69 388.51,-127.91 378.14,-125.75 379.05,-132.69"/>
<text text-anchor="middle" x="307.25" y="-147.97" font-family="IBM Plex Sans" font-size="14.00">presents</text>
</g>
<!-- comp_indexed_income_comp -->
<g id="node2" class="node">
<title>comp_indexed_income_comp</title>
<polygon fill="white" stroke="black" stroke-width="1.5" points="821.92,-107.77 655.92,-107.77 655.92,-71.77 821.92,-71.77 821.92,-107.77"/>
<text text-anchor="middle" x="738.92" y="-86.22" font-family="IBM Plex Sans" font-size="14.00">Calcul du revenu indexé</text>
</g>
<!-- comp_indexed_income_comp&#45;&gt;var_indexed_income -->
<g id="edge5" class="edge">
<title>comp_indexed_income_comp&#45;&gt;var_indexed_income</title>
<path fill="none" stroke="red" d="M655.58,-98.35C619.64,-102.1 577.6,-106.48 541.7,-110.22"/>
<polygon fill="red" stroke="red" points="541.37,-106.74 531.78,-111.25 542.09,-113.7 541.37,-106.74"/>
<text text-anchor="middle" x="610.17" y="-110.97" font-family="IBM Plex Sans" font-size="14.00">output</text>
</g>
<!-- var_reference_income&#45;&gt;comp_indexed_income_comp -->
<g id="edge3" class="edge">
<title>var_reference_income&#45;&gt;comp_indexed_income_comp</title>
<path fill="none" stroke="green" d="M525.04,-160.61C559,-152.2 601.02,-141 637.92,-128.77 652.73,-123.86 668.54,-117.99 683.12,-112.32"/>
<polygon fill="green" stroke="green" points="684.05,-115.71 692.07,-108.79 681.49,-109.2 684.05,-115.71"/>
<text text-anchor="middle" x="610.17" y="-150.97" font-family="IBM Plex Sans" font-size="14.00">input</text>
</g>
<!-- var_indexation_fraction -->
<g id="node5" class="node">
<title>var_indexation_fraction</title>
<ellipse fill="white" stroke="black" cx="458.71" cy="-61.77" rx="105.71" ry="19.45"/>
<text text-anchor="middle" x="458.71" y="-58.22" font-family="IBM Plex Sans" font-size="14.00">Fraction d&#39;indexation</text>
</g>
<!-- var_indexation_fraction&#45;&gt;comp_indexed_income_comp -->
<g id="edge4" class="edge">
<title>var_indexation_fraction&#45;&gt;comp_indexed_income_comp</title>
<path fill="none" stroke="green" d="M561.65,-66.6C586.64,-68.26 613.28,-70.45 637.92,-73.27 640,-73.5 642.09,-73.75 644.21,-74.02"/>
<polygon fill="green" stroke="green" points="643.74,-77.49 654.11,-75.32 644.66,-70.55 643.74,-77.49"/>
<text text-anchor="middle" x="610.17" y="-78.97" font-family="IBM Plex Sans" font-size="14.00">constant</text>
</g>
<!-- text_0 -->
<g id="node6" class="node">
<title>text_0</title>
<polygon fill="white" stroke="black" stroke-width="1.5" points="255.5,-79.77 16,-79.77 16,-43.77 261.5,-43.77 261.5,-73.77 255.5,-79.77"/>
<polyline fill="none" stroke="black" stroke-width="1.5" points="255.5,-79.77 255.5,-73.77"/>
<polyline fill="none" stroke="black" stroke-width="1.5" points="261.5,-73.77 255.5,-73.77"/>
<text text-anchor="middle" x="138.75" y="-58.22" font-family="IBM Plex Sans" font-size="14.00">Article sur le calcul du revenu indexé</text>
</g>
<!-- text_0&#45;&gt;comp_indexed_income_comp -->
<g id="edge7" class="edge">
<title>text_0&#45;&gt;comp_indexed_income_comp</title>
<path fill="none" stroke="orange" d="M195.7,-43.36C278.78,-18.69 439.25,18.72 572.42,-11.27 618.82,-21.71 667.48,-46.74 699.93,-65.75"/>
<polygon fill="orange" stroke="orange" points="697.78,-68.54 708.16,-70.65 701.36,-62.53 697.78,-68.54"/>
<text text-anchor="middle" x="458.71" y="-16.97" font-family="IBM Plex Sans" font-size="14.00">describes</text>
</g>
<!-- text_0&#45;&gt;var_indexation_fraction -->
<g id="edge6" class="edge">
<title>text_0&#45;&gt;var_indexation_fraction</title>
<path fill="none" stroke="orange" d="M261.77,-61.77C287.86,-61.77 315.35,-61.77 341.22,-61.77"/>
<polygon fill="orange" stroke="orange" points="341.08,-65.27 351.08,-61.77 341.08,-58.27 341.08,-65.27"/>
<text text-anchor="middle" x="307.25" y="-67.97" font-family="IBM Plex Sans" font-size="14.00">sets</text>
</g>
</g>
</svg>
