<?xml version="1.0" encoding="UTF-8" standalone="no"?>
<!DOCTYPE svg PUBLIC "-//W3C//DTD SVG 1.1//EN"
 "http://www.w3.org/Graphics/SVG/1.1/DTD/svg11.dtd">
<!-- Generated by graphviz version 10.0.1 (0)
 -->
<!-- Title: knowledge_base Pages: 1 -->
<svg
 viewBox="0.00 0.00 559.17 106.00" xmlns="http://www.w3.org/2000/svg" xmlns:xlink="http://www.w3.org/1999/xlink">
<g id="graph0" class="graph" transform="scale(1 1) rotate(0) translate(4 102)">
<title>knowledge_base</title>
<polygon fill="white" stroke="none" points="-4,4 -4,-102 555.17,-102 555.17,4 -4,4"/>
<g id="clust3" class="cluster">
<title>cluster_variables</title>
<polygon fill="none" stroke="purple" stroke-dasharray="5,2" points="315.75,-8 315.75,-90 543.17,-90 543.17,-8 315.75,-8"/>
<text text-anchor="middle" x="353" y="-72.7" font-family="IBM Plex Sans" font-size="14.00">Variables</text>
</g>
<g id="clust4" class="cluster">
<title>cluster_texts</title>
<polygon fill="none" stroke="purple" stroke-dasharray="5,2" points="8,-9 8,-89 269.5,-89 269.5,-9 8,-9"/>
<text text-anchor="middle" x="32.5" y="-71.7" font-family="IBM Plex Sans" font-size="14.00">Texts</text>
</g>
<!-- var_indexation_fraction -->
<g id="node1" class="node">
<title>var_indexation_fraction</title>
<ellipse fill="white" stroke="black" cx="429.46" cy="-35" rx="105.71" ry="19.45"/>
<text text-anchor="middle" x="429.46" y="-31.45" font-family="IBM Plex Sans" font-size="14.00">Fraction d&#39;indexation</text>
</g>
<!-- text_0 -->
<g id="node2" class="node">
<title>text_0</title>
<polygon fill="white" stroke="black" stroke-width="1.5" points="255.5,-53 16,-53 16,-17 261.5,-17 261.5,-47 255.5,-53"/>
<polyline fill="none" stroke="black" stroke-width="1.5" points="255.5,-53 255.5,-47"/>
<polyline fill="none" stroke="black" stroke-width="1.5" points="261.5,-47 255.5,-47"/>
<text text-anchor="middle" x="138.75" y="-31.45" font-family="IBM Plex Sans" font-size="14.00">Article sur le calcul du revenu indexé</text>
</g>
<!-- text_0&#45;&gt;var_indexation_fraction -->
<g id="edge1" class="edge">
<title>text_0&#45;&gt;var_indexation_fraction</title>
<path fill="none" stroke="orange" d="M261.77,-35C278.4,-35 295.44,-35 311.97,-35"/>
<polygon fill="orange" stroke="orange" points="311.81,-38.5 321.81,-35 311.81,-31.5 311.81,-38.5"/>
<text text-anchor="middle" x="292.62" y="-41.2" font-family="IBM Plex Sans" font-size="14.00">sets</text>
</g>
</g>
</svg>
