<?xml version="1.0" encoding="UTF-8" standalone="no"?>
<!DOCTYPE svg PUBLIC "-//W3C//DTD SVG 1.1//EN"
 "http://www.w3.org/Graphics/SVG/1.1/DTD/svg11.dtd">
<!-- Generated by graphviz version 10.0.1 (0)
 -->
<!-- Title: knowledge_base Pages: 1 -->
<svg
 viewBox="0.00 0.00 483.59 106.00" xmlns="http://www.w3.org/2000/svg" xmlns:xlink="http://www.w3.org/1999/xlink">
<g id="graph0" class="graph" transform="scale(1 1) rotate(0) translate(4 102)">
<title>knowledge_base</title>
<polygon fill="white" stroke="none" points="-4,4 -4,-102 479.59,-102 479.59,4 -4,4"/>
<g id="clust1" class="cluster">
<title>cluster_documents</title>
<polygon fill="none" stroke="purple" stroke-dasharray="5,2" points="8,-9 8,-89 223,-89 223,-9 8,-9"/>
<text text-anchor="middle" x="52" y="-71.7" font-family="IBM Plex Sans" font-size="14.00">Documents</text>
</g>
<g id="clust3" class="cluster">
<title>cluster_variables</title>
<polygon fill="none" stroke="purple" stroke-dasharray="5,2" points="298.5,-8 298.5,-90 467.59,-90 467.59,-8 298.5,-8"/>
<text text-anchor="middle" x="335.75" y="-72.7" font-family="IBM Plex Sans" font-size="14.00">Variables</text>
</g>
<!-- doc_indexed_income_statement -->
<g id="node1" class="node">
<title>doc_indexed_income_statement</title>
<polygon fill="white" stroke="black" stroke-width="3" points="215,-53 16,-53 16,-17 215,-17 215,-53"/>
<text text-anchor="middle" x="115.5" y="-31.45" font-family="IBM Plex Sans" font-size="14.00">Déclaration de revenu indexé</text>
</g>
<!-- var_indexed_income -->
<g id="node2" class="node">
<title>var_indexed_income</title>
<ellipse fill="white" stroke="black" cx="383.04" cy="-35" rx="76.54" ry="19.45"/>
<text text-anchor="middle" x="383.04" y="-31.45" font-family="IBM Plex Sans" font-size="14.00">Revenu indexé</text>
</g>
<!-- doc_indexed_income_statement&#45;&gt;var_indexed_income -->
<g id="edge1" class="edge">
<title>doc_indexed_income_statement&#45;&gt;var_indexed_income</title>
<path fill="none" stroke="blue" d="M216.13,-35C242.04,-35 269.75,-35 294.95,-35"/>
<polygon fill="blue" stroke="blue" points="294.83,-38.5 304.83,-35 294.83,-31.5 294.83,-38.5"/>
<text text-anchor="middle" x="260.75" y="-41.2" font-family="IBM Plex Sans" font-size="14.00">presents</text>
</g>
</g>
</svg>
